<mxfile host="app.diagrams.net" modified="2024-02-20T19:45:19.973Z" agent="Mozilla/5.0 (X11; CrOS x86_64 14541.0.0) AppleWebKit/537.36 (KHTML, like Gecko) Chrome/120.0.0.0 Safari/537.36" etag="fx4CdCHkuD1jUaECZsDX" version="23.1.5" type="github">
  <diagram name="Task 0-simple_web_stack" id="8bWBaEhp-v-cjME970KB">
    <mxGraphModel dx="2554" dy="1468" grid="0" gridSize="10" guides="1" tooltips="1" connect="1" arrows="1" fold="1" page="0" pageScale="1" pageWidth="850" pageHeight="1100" math="0" shadow="0">
      <root>
        <mxCell id="0" />
        <mxCell id="1" parent="0" />
        <mxCell id="ALjk90YuMeXRMLBP7BeC-8" value="User" style="text;html=1;align=center;verticalAlign=middle;resizable=0;points=[];autosize=1;strokeColor=none;fillColor=none;fontSize=16;labelBackgroundColor=none;fontColor=#46495D;" parent="1" vertex="1">
          <mxGeometry x="-171" y="-136" width="52" height="31" as="geometry" />
        </mxCell>
        <mxCell id="ALjk90YuMeXRMLBP7BeC-9" value="HTTP Request" style="text;html=1;align=center;verticalAlign=middle;resizable=0;points=[];autosize=1;strokeColor=none;fillColor=none;fontSize=16;rotation=90;labelBackgroundColor=none;fontColor=#46495D;" parent="1" vertex="1">
          <mxGeometry x="399" y="6" width="125" height="31" as="geometry" />
        </mxCell>
        <mxCell id="ALjk90YuMeXRMLBP7BeC-10" value="" style="edgeStyle=segmentEdgeStyle;endArrow=classic;html=1;curved=0;rounded=0;endSize=8;startSize=8;fontSize=12;entryX=0.54;entryY=0.002;entryDx=0;entryDy=0;entryPerimeter=0;exitX=1.017;exitY=0.638;exitDx=0;exitDy=0;exitPerimeter=0;labelBackgroundColor=none;strokeColor=#788AA3;fontColor=default;" parent="1" source="qhRZTPOITp6mi-SZt_0j-1" target="ALjk90YuMeXRMLBP7BeC-11" edge="1">
          <mxGeometry width="50" height="50" relative="1" as="geometry">
            <mxPoint x="207.9380000000001" y="-173.48900000000003" as="sourcePoint" />
            <mxPoint x="355" y="110" as="targetPoint" />
          </mxGeometry>
        </mxCell>
        <mxCell id="ALjk90YuMeXRMLBP7BeC-34" style="edgeStyle=none;curved=1;rounded=0;orthogonalLoop=1;jettySize=auto;html=1;exitX=0.5;exitY=1;exitDx=0;exitDy=0;fontSize=12;startSize=8;endSize=8;labelBackgroundColor=none;strokeColor=#788AA3;fontColor=default;" parent="1" source="ALjk90YuMeXRMLBP7BeC-11" edge="1">
          <mxGeometry relative="1" as="geometry">
            <mxPoint x="394.7777777777778" y="577.4444444444443" as="targetPoint" />
          </mxGeometry>
        </mxCell>
        <mxCell id="ALjk90YuMeXRMLBP7BeC-11" value="" style="whiteSpace=wrap;html=1;aspect=fixed;labelBackgroundColor=none;fillColor=#B2C9AB;strokeColor=#788AA3;fontColor=#46495D;" parent="1" vertex="1">
          <mxGeometry x="230" y="237" width="381" height="381" as="geometry" />
        </mxCell>
        <mxCell id="ALjk90YuMeXRMLBP7BeC-12" value="" style="edgeStyle=segmentEdgeStyle;endArrow=classic;html=1;curved=0;rounded=0;endSize=8;startSize=8;fontSize=12;exitX=0;exitY=0.25;exitDx=0;exitDy=0;entryX=0.777;entryY=0.997;entryDx=0;entryDy=0;entryPerimeter=0;labelBackgroundColor=none;strokeColor=#788AA3;fontColor=default;" parent="1" source="ALjk90YuMeXRMLBP7BeC-11" target="qhRZTPOITp6mi-SZt_0j-1" edge="1">
          <mxGeometry width="50" height="50" relative="1" as="geometry">
            <mxPoint x="-3.0039999999999623" y="232.8259999999998" as="sourcePoint" />
            <mxPoint x="114.5" y="-107" as="targetPoint" />
          </mxGeometry>
        </mxCell>
        <mxCell id="ALjk90YuMeXRMLBP7BeC-14" value="HTTP Response" style="text;html=1;align=center;verticalAlign=middle;resizable=0;points=[];autosize=1;strokeColor=none;fillColor=none;fontSize=16;rotation=90;labelBackgroundColor=none;fontColor=#46495D;" parent="1" vertex="1">
          <mxGeometry x="127.75" y="20" width="138" height="31" as="geometry" />
        </mxCell>
        <mxCell id="ALjk90YuMeXRMLBP7BeC-15" style="edgeStyle=none;curved=1;rounded=0;orthogonalLoop=1;jettySize=auto;html=1;exitX=0;exitY=0;exitDx=0;exitDy=0;fontSize=12;startSize=8;endSize=8;labelBackgroundColor=none;strokeColor=#788AA3;fontColor=default;" parent="1" source="ALjk90YuMeXRMLBP7BeC-11" target="ALjk90YuMeXRMLBP7BeC-11" edge="1">
          <mxGeometry relative="1" as="geometry" />
        </mxCell>
        <mxCell id="ug05LiAxdG2SeN3sleKM-1" value="" style="edgeStyle=orthogonalEdgeStyle;rounded=0;orthogonalLoop=1;jettySize=auto;html=1;labelBackgroundColor=none;strokeColor=#788AA3;fontColor=default;" parent="1" target="ALjk90YuMeXRMLBP7BeC-20" edge="1">
          <mxGeometry relative="1" as="geometry">
            <mxPoint x="395.06666666666706" y="273" as="sourcePoint" />
          </mxGeometry>
        </mxCell>
        <mxCell id="ug05LiAxdG2SeN3sleKM-2" value="" style="edgeStyle=orthogonalEdgeStyle;rounded=0;orthogonalLoop=1;jettySize=auto;html=1;labelBackgroundColor=none;strokeColor=#788AA3;fontColor=default;" parent="1" target="ALjk90YuMeXRMLBP7BeC-23" edge="1">
          <mxGeometry relative="1" as="geometry">
            <mxPoint x="395.06666666666706" y="273" as="sourcePoint" />
          </mxGeometry>
        </mxCell>
        <mxCell id="ALjk90YuMeXRMLBP7BeC-20" value="" style="ellipse;whiteSpace=wrap;html=1;aspect=fixed;labelBackgroundColor=none;fillColor=#B2C9AB;strokeColor=#788AA3;fontColor=#46495D;" parent="1" vertex="1">
          <mxGeometry x="253" y="281" width="103" height="103" as="geometry" />
        </mxCell>
        <mxCell id="ALjk90YuMeXRMLBP7BeC-22" value="Web Server:&lt;br&gt;(Nginx)" style="text;html=1;align=center;verticalAlign=middle;resizable=0;points=[];autosize=1;strokeColor=none;fillColor=none;fontSize=16;labelBackgroundColor=none;fontColor=#46495D;" parent="1" vertex="1">
          <mxGeometry x="251.5" y="306" width="106" height="50" as="geometry" />
        </mxCell>
        <mxCell id="ALjk90YuMeXRMLBP7BeC-23" value="" style="ellipse;whiteSpace=wrap;html=1;labelBackgroundColor=none;fillColor=#B2C9AB;strokeColor=#788AA3;fontColor=#46495D;" parent="1" vertex="1">
          <mxGeometry x="444" y="291" width="145" height="80" as="geometry" />
        </mxCell>
        <mxCell id="ALjk90YuMeXRMLBP7BeC-24" value="App Server" style="text;html=1;align=center;verticalAlign=middle;resizable=0;points=[];autosize=1;strokeColor=none;fillColor=none;fontSize=16;labelBackgroundColor=none;fontColor=#46495D;" parent="1" vertex="1">
          <mxGeometry x="467.5" y="317" width="98" height="31" as="geometry" />
        </mxCell>
        <mxCell id="ALjk90YuMeXRMLBP7BeC-25" value="" style="shape=datastore;whiteSpace=wrap;html=1;labelBackgroundColor=none;fillColor=#B2C9AB;strokeColor=#788AA3;fontColor=#46495D;" parent="1" vertex="1">
          <mxGeometry x="461" y="433.5" width="111" height="94" as="geometry" />
        </mxCell>
        <mxCell id="ALjk90YuMeXRMLBP7BeC-26" value="Database&lt;br&gt;MySql" style="text;html=1;align=center;verticalAlign=middle;resizable=0;points=[];autosize=1;strokeColor=none;fillColor=none;fontSize=16;labelBackgroundColor=none;fontColor=#46495D;" parent="1" vertex="1">
          <mxGeometry x="473" y="469" width="87" height="50" as="geometry" />
        </mxCell>
        <mxCell id="ALjk90YuMeXRMLBP7BeC-27" value="" style="shape=parallelogram;perimeter=parallelogramPerimeter;whiteSpace=wrap;html=1;fixedSize=1;labelBackgroundColor=none;fillColor=#B2C9AB;strokeColor=#788AA3;fontColor=#46495D;" parent="1" vertex="1">
          <mxGeometry x="242" y="434" width="127" height="94" as="geometry" />
        </mxCell>
        <mxCell id="ALjk90YuMeXRMLBP7BeC-28" value="CodeBase&lt;br&gt;HTML&lt;br&gt;PHP&lt;br&gt;ETC." style="text;html=1;align=center;verticalAlign=middle;resizable=0;points=[];autosize=1;strokeColor=none;fillColor=none;fontSize=16;labelBackgroundColor=none;fontColor=#46495D;" parent="1" vertex="1">
          <mxGeometry x="262" y="438.5" width="94" height="89" as="geometry" />
        </mxCell>
        <mxCell id="ALjk90YuMeXRMLBP7BeC-29" value="" style="endArrow=classic;html=1;rounded=0;fontSize=12;startSize=8;endSize=8;exitX=0.5;exitY=1;exitDx=0;exitDy=0;entryX=0.5;entryY=0;entryDx=0;entryDy=0;labelBackgroundColor=none;strokeColor=#788AA3;fontColor=default;" parent="1" source="ALjk90YuMeXRMLBP7BeC-23" target="ALjk90YuMeXRMLBP7BeC-25" edge="1">
          <mxGeometry width="50" height="50" relative="1" as="geometry">
            <mxPoint x="524.5" y="384" as="sourcePoint" />
            <mxPoint x="574.5" y="334" as="targetPoint" />
            <Array as="points">
              <mxPoint x="504" y="393" />
            </Array>
          </mxGeometry>
        </mxCell>
        <mxCell id="ALjk90YuMeXRMLBP7BeC-31" value="" style="endArrow=classic;html=1;rounded=0;fontSize=12;startSize=8;endSize=8;exitX=0.507;exitY=-0.067;exitDx=0;exitDy=0;exitPerimeter=0;entryX=0.5;entryY=1;entryDx=0;entryDy=0;labelBackgroundColor=none;strokeColor=#788AA3;fontColor=default;" parent="1" source="ALjk90YuMeXRMLBP7BeC-28" target="ALjk90YuMeXRMLBP7BeC-20" edge="1">
          <mxGeometry width="50" height="50" relative="1" as="geometry">
            <mxPoint x="201" y="217" as="sourcePoint" />
            <mxPoint x="251" y="167" as="targetPoint" />
          </mxGeometry>
        </mxCell>
        <mxCell id="ALjk90YuMeXRMLBP7BeC-32" value="" style="endArrow=classic;html=1;rounded=0;fontSize=12;startSize=8;endSize=8;exitX=0.575;exitY=0.022;exitDx=0;exitDy=0;exitPerimeter=0;entryX=0;entryY=0.5;entryDx=0;entryDy=0;labelBackgroundColor=none;strokeColor=#788AA3;fontColor=default;" parent="1" source="ALjk90YuMeXRMLBP7BeC-27" target="ALjk90YuMeXRMLBP7BeC-23" edge="1">
          <mxGeometry width="50" height="50" relative="1" as="geometry">
            <mxPoint x="201" y="217" as="sourcePoint" />
            <mxPoint x="251" y="167" as="targetPoint" />
          </mxGeometry>
        </mxCell>
        <mxCell id="ALjk90YuMeXRMLBP7BeC-35" value="&lt;h1&gt;IP 8.8.8.8&lt;/h1&gt;" style="text;html=1;spacing=5;spacingTop=-20;whiteSpace=wrap;overflow=hidden;rounded=0;labelBackgroundColor=none;fontColor=#46495D;" parent="1" vertex="1">
          <mxGeometry x="363" y="578" width="115" height="40" as="geometry" />
        </mxCell>
        <mxCell id="mgsv-WT0YMYp7ut3m8RH-1" value="DNS translates&amp;nbsp;&lt;br&gt;www.foobar.com to&lt;br&gt;8.8.8.8" style="rounded=1;whiteSpace=wrap;html=1;labelBackgroundColor=none;fillColor=#B2C9AB;strokeColor=#788AA3;fontColor=#46495D;" parent="1" vertex="1">
          <mxGeometry x="207" y="-356" width="197" height="60" as="geometry" />
        </mxCell>
        <mxCell id="mgsv-WT0YMYp7ut3m8RH-3" value="" style="endArrow=classic;html=1;rounded=0;exitX=0.5;exitY=1;exitDx=0;exitDy=0;entryX=0.97;entryY=0.674;entryDx=0;entryDy=0;entryPerimeter=0;labelBackgroundColor=none;strokeColor=#788AA3;fontColor=default;" parent="1" source="mgsv-WT0YMYp7ut3m8RH-1" target="qhRZTPOITp6mi-SZt_0j-1" edge="1">
          <mxGeometry width="50" height="50" relative="1" as="geometry">
            <mxPoint x="554" y="209" as="sourcePoint" />
            <mxPoint x="200.42000000000007" y="-215.77999999999997" as="targetPoint" />
            <Array as="points" />
          </mxGeometry>
        </mxCell>
        <mxCell id="mgsv-WT0YMYp7ut3m8RH-4" value="&lt;h1&gt;www.foobar.com Server&lt;/h1&gt;" style="text;html=1;spacing=5;spacingTop=-20;whiteSpace=wrap;overflow=hidden;rounded=0;labelBackgroundColor=none;fontColor=#46495D;" parent="1" vertex="1">
          <mxGeometry x="265.75" y="544" width="309.5" height="40" as="geometry" />
        </mxCell>
        <mxCell id="qhRZTPOITp6mi-SZt_0j-1" value="" style="image;points=[];aspect=fixed;html=1;align=center;shadow=0;dashed=0;image=img/lib/allied_telesis/computer_and_terminals/Personal_Computer_Wireless.svg;labelBackgroundColor=none;fillColor=#B2C9AB;strokeColor=#788AA3;fontColor=#46495D;" parent="1" vertex="1">
          <mxGeometry x="80" y="-252" width="121" height="123.3" as="geometry" />
        </mxCell>
        <mxCell id="qhRZTPOITp6mi-SZt_0j-2" value="" style="sketch=0;outlineConnect=0;fontColor=#46495D;fillColor=#B2C9AB;strokeColor=none;dashed=0;verticalLabelPosition=bottom;verticalAlign=top;align=center;html=1;fontSize=12;fontStyle=0;aspect=fixed;pointerEvents=1;shape=mxgraph.aws4.user;labelBackgroundColor=none;" parent="1" vertex="1">
          <mxGeometry x="-184" y="-229.35000000000002" width="78" height="78" as="geometry" />
        </mxCell>
        <mxCell id="qhRZTPOITp6mi-SZt_0j-3" value="" style="endArrow=classic;html=1;rounded=0;labelBackgroundColor=none;strokeColor=#788AA3;fontColor=default;" parent="1" source="qhRZTPOITp6mi-SZt_0j-2" target="qhRZTPOITp6mi-SZt_0j-1" edge="1">
          <mxGeometry width="50" height="50" relative="1" as="geometry">
            <mxPoint x="-56" y="-187" as="sourcePoint" />
            <mxPoint x="-6" y="-237" as="targetPoint" />
          </mxGeometry>
        </mxCell>
        <mxCell id="qhRZTPOITp6mi-SZt_0j-5" value="With browser" style="text;html=1;align=center;verticalAlign=middle;resizable=0;points=[];autosize=1;strokeColor=none;fillColor=none;fontSize=16;rotation=0;labelBackgroundColor=none;fontColor=#46495D;" parent="1" vertex="1">
          <mxGeometry x="-68" y="-234" width="111" height="31" as="geometry" />
        </mxCell>
        <mxCell id="qhRZTPOITp6mi-SZt_0j-7" value="www.foobar.com" style="text;html=1;align=center;verticalAlign=middle;resizable=0;points=[];autosize=1;strokeColor=none;fillColor=none;fontSize=16;rotation=0;labelBackgroundColor=none;fontColor=#46495D;" parent="1" vertex="1">
          <mxGeometry x="-80" y="-175" width="135" height="31" as="geometry" />
        </mxCell>
      </root>
    </mxGraphModel>
  </diagram>
</mxfile>
